<svg width="43" height="43" viewBox="0 0 43 43" fill="none" xmlns="http://www.w3.org/2000/svg">
<rect x="0.26416" y="0.719727" width="42" height="42" rx="21" fill="#ffffff" id="id_101"></rect>
<path d="M21.2642 32.2197C20.4767 32.2197 19.9517 31.6947 19.9517 30.9072V23.0322H12.0767C11.2892 23.0322 10.7642 22.5072 10.7642 21.7197C10.7642 20.9322 11.2892 20.4072 12.0767 20.4072H19.9517V12.5322C19.9517 11.7447 20.4767 11.2197 21.2642 11.2197C22.0517 11.2197 22.5767 11.7447 22.5767 12.5322V20.4072H30.4517C31.2392 20.4072 31.7642 20.9322 31.7642 21.7197C31.7642 22.5072 31.2392 23.0322 30.4517 23.0322H22.5767V30.9072C22.5767 31.6947 22.0517 32.2197 21.2642 32.2197Z" fill="#fea03c" id="id_102"></path>
</svg>